<svg xmlns="http://www.w3.org/2000/svg" width="56.5" height="51" viewBox="0 0 56.5 51"><defs><style>.a,.d{fill:none;stroke:#4f3c75;stroke-linecap:round;}.a{stroke-linejoin:round;stroke-width:1.5px;}.b,.c{fill:#4f3c75;}.b{opacity:0.312;}.d{stroke-width:2px;}</style></defs><g transform="translate(-534.25 -288.75)"><path class="a" d="M58,48.5A5.5,5.5,0,0,1,52.5,54H8.5A5.5,5.5,0,0,1,3,48.5V10A5.5,5.5,0,0,1,8.5,4.5H22.25l5.5,8.25H52.5a5.5,5.5,0,0,1,5.5,5.5Z" transform="translate(532 285)"/><path class="b" d="M-3302.953-582.426h.1v1A5.034,5.034,0,0,0-3302.953-582.426Zm-54.9,0v-3.485H-3358l.066-3.826,1.272-3.077,1.867-1.385,1.838-.624,5.193-.177,8.713.177.766.223,5.315,8.173h25.118a5,5,0,0,1,4.9,4Z" transform="translate(3892.854 884.426)"/><rect class="c" width="55" height="1.5" transform="translate(535 301)"/><path class="d" d="M553.526,314.25h9.706" transform="translate(-2.613 -2.873)"/><path class="d" d="M553.526,314.25h9.706" transform="translate(13.66 8.393)"/><path class="d" d="M553.526,314.25h9.706" transform="translate(13.66 2.134)"/><path class="d" d="M553.526,314.25h9.706" transform="translate(-2.613 10.897)"/><path class="d" d="M0,0H9.706" transform="translate(555.766 320.294) rotate(90)"/></g></svg>