<svg xmlns="http://www.w3.org/2000/svg" width="56.5" height="51" viewBox="0 0 56.5 51"><defs><style>.a{fill:none;stroke:#4f3c75;stroke-linecap:round;stroke-linejoin:round;stroke-width:1.5px;}.b,.c{fill:#4f3c75;}.b{opacity:0.312;}</style></defs><g transform="translate(-534.25 -288.75)"><path class="a" d="M58,48.5A5.5,5.5,0,0,1,52.5,54H8.5A5.5,5.5,0,0,1,3,48.5V10A5.5,5.5,0,0,1,8.5,4.5H22.25l5.5,8.25H52.5a5.5,5.5,0,0,1,5.5,5.5Z" transform="translate(532 285)"/><path class="b" d="M-3302.953-582.426h.1v1A5.034,5.034,0,0,0-3302.953-582.426Zm-54.9,0v-3.485H-3358l.066-3.826,1.272-3.077,1.867-1.385,1.838-.624,5.193-.177,8.713.177.766.223,5.315,8.173h25.118a5,5,0,0,1,4.9,4Z" transform="translate(3892.854 884.426)"/><rect class="c" width="55" height="1.5" transform="translate(535 301)"/><path class="c" d="M16.253,14.264c-2.806-.729-3.708-1.483-3.708-2.657,0-1.347,1.248-2.286,3.337-2.286,2.2,0,3.016,1.051,3.09,2.6H21.7a4.927,4.927,0,0,0-3.967-4.709V4.5H14.028V7.17C11.63,7.689,9.7,9.246,9.7,11.631c0,2.855,2.361,4.276,5.809,5.1,3.09.742,3.708,1.829,3.708,2.979,0,.853-.606,2.212-3.337,2.212-2.546,0-3.547-1.137-3.683-2.6H9.48c.148,2.707,2.175,4.227,4.548,4.734v2.682h3.708V24.089c2.41-.457,4.326-1.854,4.326-4.387C22.062,16.192,19.058,14.993,16.253,14.264Z" transform="translate(546.391 303.377)"/></g></svg>