<svg xmlns="http://www.w3.org/2000/svg" width="56.5" height="51" viewBox="0 0 56.5 51"><defs><style>.a{fill:none;stroke:#4f3c75;stroke-linecap:round;stroke-linejoin:round;stroke-width:1.5px;}.b,.c{fill:#4f3c75;}.b{opacity:0.312;}</style></defs><g transform="translate(-534.25 -288.75)"><path class="a" d="M58,48.5A5.5,5.5,0,0,1,52.5,54H8.5A5.5,5.5,0,0,1,3,48.5V10A5.5,5.5,0,0,1,8.5,4.5H22.25l5.5,8.25H52.5a5.5,5.5,0,0,1,5.5,5.5Z" transform="translate(532 285)"/><path class="b" d="M-3302.953-582.426h.1v1A5.034,5.034,0,0,0-3302.953-582.426Zm-54.9,0v-3.485H-3358l.066-3.826,1.272-3.077,1.867-1.385,1.838-.624,5.193-.177,8.713.177.766.223,5.315,8.173h25.118a5,5,0,0,1,4.9,4Z" transform="translate(3892.854 884.426)"/><rect class="c" width="55" height="1.5" transform="translate(535 301)"/><path class="c" d="M20.133,1.928a3.252,3.252,0,0,1,2.6,5.2l-1.3,1.3L16.881,3.879l1.3-1.3a3.238,3.238,0,0,1,1.951-.65ZM3.872,16.889l-1.3,5.854,5.854-1.3L20.459,9.408,15.905,4.855Zm13.245-7.57L8.01,18.425,6.889,17.3,16,8.2l1.121,1.121Z" transform="translate(548.914 306.931)"/></g></svg>